<svg width="40" height="40" viewBox="0 0 40 40" fill="none" xmlns="http://www.w3.org/2000/svg">
<path d="M39.0179 5.61204C38.627 4.55278 38.0033 3.59399 37.193 2.80699C36.406 1.99666 35.4479 1.37303 34.388 0.982124C33.5284 0.648267 32.237 0.250879 29.8585 0.142619C27.2855 0.0252824 26.5141 0 20.0003 0C13.4859 0 12.7145 0.0246342 10.1421 0.14197C7.76364 0.250879 6.47165 0.648267 5.61269 0.982124C4.55278 1.37303 3.59399 1.99666 2.80764 2.80699C1.99731 3.59399 1.37368 4.55213 0.982124 5.61204C0.648267 6.47165 0.250879 7.76364 0.142619 10.1421C0.0252824 12.7145 0 13.4859 0 20.0003C0 26.5141 0.0252824 27.2855 0.142619 29.8585C0.250879 32.237 0.648267 33.5284 0.982124 34.388C1.37368 35.4479 1.99666 36.406 2.80699 37.193C3.59399 38.0033 4.55213 38.627 5.61204 39.0179C6.47165 39.3524 7.76364 39.7498 10.1421 39.858C12.7145 39.9754 13.4852 40 19.9997 40C26.5148 40 27.2862 39.9754 29.8579 39.858C32.2364 39.7498 33.5284 39.3524 34.388 39.0179C36.5156 38.1972 38.1972 36.5156 39.0179 34.388C39.3517 33.5284 39.7491 32.237 39.858 29.8585C39.9754 27.2855 40 26.5141 40 20.0003C40 13.4859 39.9754 12.7145 39.858 10.1421C39.7498 7.76364 39.3524 6.47165 39.0179 5.61204ZM20.0003 32.5268C13.0814 32.5268 7.47257 26.9186 7.47257 19.9997C7.47257 13.0807 13.0814 7.47257 20.0003 7.47257C26.9186 7.47257 32.5274 13.0807 32.5274 19.9997C32.5274 26.9186 26.9186 32.5268 20.0003 32.5268ZM33.0227 9.90487C31.4059 9.90487 30.0951 8.59407 30.0951 6.97729C30.0951 5.36052 31.4059 4.04972 33.0227 4.04972C34.6395 4.04972 35.9503 5.36052 35.9503 6.97729C35.9496 8.59407 34.6395 9.90487 33.0227 9.90487Z" fill="white"/>
<path d="M28.1321 19.9997C28.1321 24.4908 24.4915 28.1315 20.0003 28.1315C15.5091 28.1315 11.8684 24.4908 11.8684 19.9997C11.8684 15.5085 15.5091 11.8678 20.0003 11.8678C24.4915 11.8678 28.1321 15.5085 28.1321 19.9997Z" fill="white"/>
</svg>
