<svg width="100" height="100" viewBox="0 0 100 100" fill="none" xmlns="http://www.w3.org/2000/svg">
<rect width="100" height="100" rx="20" fill="#FF7948"/>
<path d="M14.975 44.25C13.7417 44.25 12.6667 44.0417 11.75 43.625C10.8333 43.1917 9.925 42.525 9.025 41.625C8.925 41.525 8.875 41.4 8.875 41.25C8.875 41.1167 8.93333 40.9917 9.05 40.875C9.16667 40.7417 9.29167 40.675 9.425 40.675C9.575 40.675 9.71667 40.75 9.85 40.9C10.5 41.6667 11.2667 42.25 12.15 42.65C13.05 43.05 13.9917 43.25 14.975 43.25C16.2583 43.25 17.3167 42.9417 18.15 42.325C18.9833 41.7083 19.4 40.8917 19.4 39.875C19.3833 39.075 19.1667 38.4167 18.75 37.9C18.3333 37.3833 17.8167 36.975 17.2 36.675C16.6 36.3583 15.775 36.0083 14.725 35.625C13.575 35.1917 12.675 34.8083 12.025 34.475C11.3917 34.1417 10.8417 33.6667 10.375 33.05C9.925 32.4333 9.7 31.625 9.7 30.625C9.7 29.8083 9.925 29.0667 10.375 28.4C10.825 27.7333 11.4667 27.2083 12.3 26.825C13.1333 26.4417 14.1 26.25 15.2 26.25C16.1833 26.25 17.1167 26.4333 18 26.8C18.8833 27.15 19.5833 27.65 20.1 28.3C20.2667 28.5333 20.35 28.7083 20.35 28.825C20.35 28.9583 20.2833 29.0833 20.15 29.2C20.0333 29.3 19.9 29.35 19.75 29.35C19.6167 29.35 19.5083 29.3 19.425 29.2C18.9583 28.6 18.3583 28.125 17.625 27.775C16.8917 27.425 16.0833 27.25 15.2 27.25C13.9333 27.25 12.875 27.55 12.025 28.15C11.1917 28.75 10.775 29.5667 10.775 30.6C10.775 31.3167 10.975 31.925 11.375 32.425C11.7917 32.925 12.3083 33.3333 12.925 33.65C13.5417 33.95 14.3083 34.2667 15.225 34.6C16.3917 35.0167 17.3167 35.4 18 35.75C18.6833 36.1 19.2667 36.6083 19.75 37.275C20.2333 37.9417 20.475 38.825 20.475 39.925C20.475 40.6917 20.25 41.4083 19.8 42.075C19.35 42.7417 18.7 43.275 17.85 43.675C17.0167 44.0583 16.0583 44.25 14.975 44.25ZM28.9701 31.425C29.0868 31.425 29.1951 31.475 29.2951 31.575C29.3951 31.675 29.4451 31.7833 29.4451 31.9C29.4451 32.0333 29.3951 32.15 29.2951 32.25C29.2118 32.3333 29.1035 32.375 28.9701 32.375H26.2201V41.275C26.2201 42.0083 26.3451 42.5 26.5951 42.75C26.8618 42.9833 27.1951 43.1 27.5951 43.1C27.6618 43.1 27.7535 43.0833 27.8701 43.05C28.0035 43.0167 28.1118 43 28.1951 43C28.3118 43 28.4118 43.05 28.4951 43.15C28.5785 43.2333 28.6201 43.3333 28.6201 43.45C28.6201 43.6 28.5201 43.7333 28.3201 43.85C28.1201 43.95 27.8868 44 27.6201 44C27.2035 44 26.8535 43.975 26.5701 43.925C26.2868 43.8583 25.9868 43.6333 25.6701 43.25C25.3701 42.85 25.2201 42.2083 25.2201 41.325V32.375H23.1701C23.0535 32.375 22.9451 32.325 22.8451 32.225C22.7451 32.125 22.6951 32.0167 22.6951 31.9C22.6951 31.7667 22.7368 31.6583 22.8201 31.575C22.9201 31.475 23.0368 31.425 23.1701 31.425H25.2201V28.25C25.2201 28.1167 25.2701 28 25.3701 27.9C25.4701 27.8 25.5868 27.75 25.7201 27.75C25.8701 27.75 25.9868 27.8 26.0701 27.9C26.1701 28 26.2201 28.1167 26.2201 28.25V31.425H28.9701ZM38.3803 31.125C39.1469 31.125 39.5303 31.3167 39.5303 31.7C39.5303 31.85 39.4886 31.975 39.4053 32.075C39.3219 32.175 39.2136 32.225 39.0803 32.225C39.0303 32.225 38.9053 32.1917 38.7053 32.125C38.5219 32.0417 38.3219 32 38.1053 32C37.4219 32 36.7386 32.275 36.0553 32.825C35.3719 33.3583 34.8136 34.0417 34.3803 34.875C33.9469 35.6917 33.7303 36.4833 33.7303 37.25V43.5C33.7303 43.6333 33.6803 43.75 33.5803 43.85C33.4803 43.95 33.3636 44 33.2303 44C33.0803 44 32.9553 43.95 32.8553 43.85C32.7719 43.75 32.7303 43.6333 32.7303 43.5V32.025C32.7303 31.8917 32.7803 31.775 32.8803 31.675C32.9803 31.575 33.0969 31.525 33.2303 31.525C33.3803 31.525 33.4969 31.575 33.5803 31.675C33.6803 31.775 33.7303 31.8917 33.7303 32.025V34.675C34.1136 33.6583 34.7053 32.8167 35.5053 32.15C36.3219 31.4833 37.2803 31.1417 38.3803 31.125ZM51.7479 41C51.8645 41 51.9645 41.05 52.0479 41.15C52.1312 41.2333 52.1729 41.3333 52.1729 41.45C52.1729 41.5667 52.1395 41.6667 52.0729 41.75C51.5229 42.4833 50.8395 43.0833 50.0229 43.55C49.2062 44.0167 48.3312 44.25 47.3979 44.25C46.1479 44.25 45.0395 43.9833 44.0729 43.45C43.1062 42.9167 42.3479 42.1583 41.7979 41.175C41.2645 40.1917 40.9979 39.05 40.9979 37.75C40.9979 36.4167 41.2562 35.25 41.7729 34.25C42.3062 33.2333 43.0062 32.4583 43.8729 31.925C44.7395 31.3917 45.6645 31.125 46.6479 31.125C47.6312 31.125 48.5395 31.3417 49.3729 31.775C50.2229 32.1917 50.9145 32.825 51.4479 33.675C51.9812 34.525 52.2645 35.575 52.2979 36.825C52.2979 36.9583 52.2479 37.0833 52.1479 37.2C52.0479 37.3 51.9312 37.35 51.7979 37.35H41.9729V37.675C41.9729 38.7083 42.1812 39.6583 42.5979 40.525C43.0145 41.375 43.6312 42.05 44.4479 42.55C45.2645 43.05 46.2479 43.3 47.3979 43.3C48.1979 43.3 48.9479 43.1083 49.6479 42.725C50.3645 42.325 50.9229 41.825 51.3229 41.225C51.4395 41.075 51.5812 41 51.7479 41ZM46.6479 32.125C46.0312 32.125 45.3979 32.2917 44.7479 32.625C44.1145 32.9417 43.5479 33.425 43.0479 34.075C42.5645 34.7083 42.2395 35.4833 42.0729 36.4H51.2729V36.175C51.1895 35.325 50.9145 34.6 50.4479 34C49.9979 33.3833 49.4312 32.9167 48.7479 32.6C48.0812 32.2833 47.3812 32.125 46.6479 32.125ZM66.3918 31.525C66.5418 31.525 66.6585 31.575 66.7418 31.675C66.8418 31.775 66.8918 31.8917 66.8918 32.025V43.5C66.8918 43.6333 66.8418 43.75 66.7418 43.85C66.6418 43.95 66.5251 44 66.3918 44C66.2418 44 66.1168 43.95 66.0168 43.85C65.9335 43.75 65.8918 43.6333 65.8918 43.5V41.25C65.4751 42.1 64.8335 42.8167 63.9668 43.4C63.1001 43.9667 62.1418 44.25 61.0918 44.25C59.9918 44.25 59.0001 43.9667 58.1168 43.4C57.2335 42.8167 56.5418 42.025 56.0418 41.025C55.5418 40.0083 55.2918 38.875 55.2918 37.625C55.2918 36.3917 55.5418 35.2833 56.0418 34.3C56.5585 33.3 57.2585 32.525 58.1418 31.975C59.0251 31.4083 60.0085 31.125 61.0918 31.125C62.1751 31.125 63.1501 31.4083 64.0168 31.975C64.8835 32.5417 65.5085 33.3 65.8918 34.25V32.025C65.8918 31.8917 65.9335 31.775 66.0168 31.675C66.1168 31.575 66.2418 31.525 66.3918 31.525ZM61.1418 43.3C62.0585 43.3 62.8835 43.0583 63.6168 42.575C64.3668 42.075 64.9501 41.3917 65.3668 40.525C65.7835 39.6583 65.9918 38.6917 65.9918 37.625C65.9918 36.6083 65.7835 35.675 65.3668 34.825C64.9501 33.975 64.3668 33.3083 63.6168 32.825C62.8835 32.325 62.0585 32.075 61.1418 32.075C60.2251 32.075 59.3918 32.3167 58.6418 32.8C57.9085 33.2667 57.3335 33.925 56.9168 34.775C56.5001 35.6083 56.2918 36.5583 56.2918 37.625C56.2918 38.6917 56.5001 39.6583 56.9168 40.525C57.3335 41.3917 57.9085 42.075 58.6418 42.575C59.3751 43.0583 60.2085 43.3 61.1418 43.3ZM85.735 31.375C87.1683 31.375 88.2516 31.825 88.985 32.725C89.735 33.625 90.11 34.7917 90.11 36.225V43.5C90.11 43.6333 90.06 43.75 89.96 43.85C89.8766 43.95 89.76 44 89.61 44C89.46 44 89.335 43.95 89.235 43.85C89.1516 43.75 89.11 43.6333 89.11 43.5V36.325C89.11 35.1417 88.8183 34.1833 88.235 33.45C87.6683 32.7 86.8016 32.325 85.635 32.325C84.9183 32.325 84.21 32.5083 83.51 32.875C82.8266 33.2417 82.2683 33.7333 81.835 34.35C81.4016 34.95 81.185 35.6083 81.185 36.325V43.5C81.185 43.6333 81.135 43.75 81.035 43.85C80.9516 43.95 80.835 44 80.685 44C80.535 44 80.41 43.95 80.31 43.85C80.2266 43.75 80.185 43.6333 80.185 43.5V36.2C80.185 35.05 79.91 34.1167 79.36 33.4C78.81 32.6833 77.9766 32.325 76.86 32.325C76.16 32.325 75.4766 32.5 74.81 32.85C74.1433 33.2 73.5933 33.675 73.16 34.275C72.7433 34.875 72.535 35.5167 72.535 36.2V43.5C72.535 43.6333 72.485 43.75 72.385 43.85C72.285 43.95 72.1683 44 72.035 44C71.885 44 71.76 43.95 71.66 43.85C71.5766 43.75 71.535 43.6333 71.535 43.5V32.025C71.535 31.8917 71.585 31.775 71.685 31.675C71.785 31.575 71.9016 31.525 72.035 31.525C72.185 31.525 72.3016 31.575 72.385 31.675C72.485 31.775 72.535 31.8917 72.535 32.025V33.775C73.0183 33.075 73.6433 32.5 74.41 32.05C75.1933 31.6 76.01 31.375 76.86 31.375C77.7766 31.375 78.5933 31.6083 79.31 32.075C80.0266 32.5417 80.5516 33.225 80.885 34.125C81.235 33.3583 81.8933 32.7083 82.86 32.175C83.8433 31.6417 84.8016 31.375 85.735 31.375Z" fill="white"/>
<path d="M28.485 74.975C29.0917 74.975 29.5933 75.185 29.99 75.605C30.41 76.0017 30.62 76.4683 30.62 77.005C30.62 77.5883 30.41 78.0667 29.99 78.44C29.5933 78.8133 29.0917 79 28.485 79H16.76C16.1533 79 15.64 78.8017 15.22 78.405C14.8233 77.985 14.625 77.4717 14.625 76.865V56.635C14.625 56.0283 14.8233 55.5267 15.22 55.13C15.64 54.71 16.1533 54.5 16.76 54.5H28.485C29.0917 54.5 29.5933 54.6983 29.99 55.095C30.41 55.4683 30.62 55.9583 30.62 56.565C30.62 57.1483 30.4217 57.6267 30.025 58C29.6283 58.35 29.115 58.525 28.485 58.525H19V64.475H26.91C27.5167 64.475 28.0183 64.6733 28.415 65.07C28.835 65.4433 29.045 65.9333 29.045 66.54C29.045 67.1233 28.8467 67.6017 28.45 67.975C28.0533 68.325 27.54 68.5 26.91 68.5H19V74.975H28.485ZM50.1593 59.925C50.766 59.925 51.2676 60.1233 51.6643 60.52C52.061 60.9167 52.2593 61.43 52.2593 62.06V76.865C52.2593 77.4717 52.061 77.985 51.6643 78.405C51.2676 78.8017 50.766 79 50.1593 79C49.5526 79 49.051 78.8017 48.6543 78.405C48.281 78.0083 48.0826 77.5067 48.0593 76.9C47.476 77.5767 46.6826 78.16 45.6793 78.65C44.6993 79.1167 43.661 79.35 42.5643 79.35C40.9543 79.35 39.496 78.9417 38.1893 78.125C36.8826 77.285 35.8443 76.13 35.0743 74.66C34.3276 73.19 33.9543 71.5217 33.9543 69.655C33.9543 67.7883 34.3276 66.12 35.0743 64.65C35.821 63.1567 36.836 62.0017 38.1193 61.185C39.426 60.345 40.861 59.925 42.4243 59.925C43.5443 59.925 44.5943 60.135 45.5743 60.555C46.5543 60.9517 47.3826 61.465 48.0593 62.095V62.06C48.0593 61.4533 48.2576 60.9517 48.6543 60.555C49.051 60.135 49.5526 59.925 50.1593 59.925ZM43.0893 75.5C44.606 75.5 45.8426 74.9517 46.7993 73.855C47.756 72.735 48.2343 71.335 48.2343 69.655C48.2343 67.975 47.756 66.575 46.7993 65.455C45.8426 64.335 44.606 63.775 43.0893 63.775C41.596 63.775 40.371 64.335 39.4143 65.455C38.4576 66.575 37.9793 67.975 37.9793 69.655C37.9793 71.335 38.446 72.735 39.3793 73.855C40.336 74.9517 41.5726 75.5 43.0893 75.5ZM66.5409 75.045C66.8676 75.045 67.1593 75.2083 67.4159 75.535C67.6959 75.8383 67.8359 76.2467 67.8359 76.76C67.8359 77.39 67.4859 77.9267 66.7859 78.37C66.1093 78.79 65.3393 79 64.4759 79C63.0293 79 61.8043 78.6967 60.8009 78.09C59.8209 77.46 59.3309 76.1417 59.3309 74.135V64.475H57.7209C57.1609 64.475 56.6943 64.2883 56.3209 63.915C55.9476 63.5417 55.7609 63.075 55.7609 62.515C55.7609 61.9783 55.9476 61.535 56.3209 61.185C56.6943 60.8117 57.1609 60.625 57.7209 60.625H59.3309V58.385C59.3309 57.7783 59.5293 57.2767 59.9259 56.88C60.3459 56.46 60.8593 56.25 61.4659 56.25C62.0493 56.25 62.5393 56.46 62.9359 56.88C63.3326 57.2767 63.5309 57.7783 63.5309 58.385V60.625H66.0159C66.5759 60.625 67.0426 60.8117 67.4159 61.185C67.7893 61.5583 67.9759 62.025 67.9759 62.585C67.9759 63.1217 67.7893 63.5767 67.4159 63.95C67.0426 64.3 66.5759 64.475 66.0159 64.475H63.5309V73.96C63.5309 74.45 63.6593 74.8117 63.9159 75.045C64.1726 75.255 64.5226 75.36 64.9659 75.36C65.1526 75.36 65.4093 75.3133 65.7359 75.22C66.0159 75.1033 66.2843 75.045 66.5409 75.045ZM72.1308 76.095C71.9208 75.815 71.8158 75.465 71.8158 75.045C71.8158 74.4383 72.1192 73.925 72.7258 73.505C73.0525 73.295 73.3908 73.19 73.7408 73.19C74.2308 73.19 74.6975 73.4117 75.1408 73.855C75.8408 74.5783 76.5642 75.115 77.3108 75.465C78.0808 75.815 79.0025 75.99 80.0758 75.99C81.8958 75.92 82.8058 75.2317 82.8058 73.925C82.8058 73.2483 82.4908 72.735 81.8608 72.385C81.2542 72.035 80.2975 71.685 78.9908 71.335C77.6375 70.9617 76.5292 70.5883 75.6658 70.215C74.8258 69.8417 74.0908 69.2817 73.4608 68.535C72.8542 67.765 72.5508 66.7383 72.5508 65.455C72.5508 64.335 72.8658 63.3667 73.4958 62.55C74.1492 61.71 74.9892 61.0683 76.0158 60.625C77.0658 60.1583 78.1742 59.925 79.3408 59.925C80.5308 59.925 81.7208 60.1467 82.9108 60.59C84.1008 61.0333 85.0342 61.6867 85.7108 62.55C86.0142 62.9233 86.1658 63.3433 86.1658 63.81C86.1658 64.3467 85.9442 64.79 85.5008 65.14C85.1742 65.3967 84.8008 65.525 84.3808 65.525C83.8675 65.525 83.4475 65.3617 83.1208 65.035C82.7008 64.5217 82.1525 64.1133 81.4758 63.81C80.8225 63.5067 80.0758 63.355 79.2358 63.355C77.4625 63.355 76.5758 63.9967 76.5758 65.28C76.5758 65.7933 76.7392 66.2133 77.0658 66.54C77.3925 66.8433 77.8008 67.0883 78.2908 67.275C78.8042 67.4383 79.5158 67.6483 80.4258 67.905C81.6858 68.255 82.7358 68.6167 83.5758 68.99C84.4158 69.3633 85.1275 69.935 85.7108 70.705C86.2942 71.475 86.5858 72.49 86.5858 73.75C86.5858 74.8933 86.2475 75.8967 85.5708 76.76C84.8942 77.6 84.0192 78.2417 82.9458 78.685C81.8958 79.1283 80.8108 79.35 79.6908 79.35C78.1508 79.35 76.7158 79.0933 75.3858 78.58C74.0558 78.0667 72.9708 77.2383 72.1308 76.095Z" fill="white"/>
</svg>
