<svg width="40" height="40" viewBox="0 0 40 40" fill="none" xmlns="http://www.w3.org/2000/svg">
<path d="M37.1152 0H2.88484C1.29148 0 0 1.29148 0 2.88484V37.1152C0 38.7085 1.29148 40 2.88484 40H37.1152C38.7085 40 40 38.7085 40 37.1152V2.88484C40 1.29148 38.7085 0 37.1152 0V0ZM30.0193 15.3093V18.0134C28.7441 18.0139 27.5052 17.7641 26.3367 17.271C25.5854 16.9538 24.8854 16.5451 24.2452 16.0513L24.2644 24.3748C24.2563 26.2491 23.5148 28.0102 22.1728 29.3366C21.0806 30.4163 19.6966 31.1029 18.1966 31.3251C17.8441 31.3773 17.4855 31.4041 17.1227 31.4041C15.517 31.4041 13.9925 30.8838 12.7455 29.9241C12.5108 29.7434 12.2864 29.5476 12.0727 29.3366C10.6182 27.8991 9.8682 25.9506 9.99445 23.901C10.0909 22.3408 10.7155 20.8528 11.7568 19.6866C13.1345 18.1433 15.062 17.2866 17.1227 17.2866C17.4855 17.2866 17.8441 17.3138 18.1966 17.3661V18.3659V21.1473C17.8625 21.037 17.5055 20.9764 17.1339 20.9764C15.2511 20.9764 13.7279 22.5125 13.756 24.3966C13.7738 25.6022 14.4324 26.656 15.4037 27.2369C15.8601 27.5099 16.3852 27.679 16.9456 27.7098C17.3847 27.7338 17.8062 27.6727 18.1966 27.5438C19.5418 27.0995 20.5122 25.8359 20.5122 24.3458L20.5166 18.7719V8.59594H24.2407C24.2443 8.96492 24.2817 9.325 24.3513 9.67383C24.6324 11.0859 25.4284 12.3111 26.5362 13.1463C27.5021 13.8749 28.7049 14.3068 30.0087 14.3068C30.0095 14.3068 30.0202 14.3068 30.0194 14.3059V15.3093H30.0193Z" fill="white"/>
</svg>
