<svg width="40" height="40" viewBox="0 0 40 40" fill="none" xmlns="http://www.w3.org/2000/svg">
<rect width="40" height="40" rx="5" fill="white"/>
<path d="M35 11.2052C33.1129 11.2902 33.1541 11.2833 32.9408 11.3007L34.0584 8.18097C34.0584 8.18097 30.5698 9.43537 29.6854 9.65976C27.3627 7.61921 23.9102 7.52905 21.442 9.01186C19.4207 10.2264 18.3358 12.3122 18.6977 14.7501C14.7639 14.2165 11.4494 12.3938 8.83263 9.32127L8.00499 8.34965L7.38655 9.45975C6.60492 10.8625 6.34537 12.4663 6.6555 13.9758C6.78276 14.595 6.99905 15.1856 7.29866 15.7387L6.58867 15.4698L6.50444 16.6293C6.41907 17.8072 6.8203 19.1822 7.5779 20.307C7.79121 20.6238 8.06587 20.9717 8.414 21.3149L8.0471 21.2599L8.4948 22.5885C9.08325 24.3342 10.3055 25.6848 11.8916 26.4356C10.3075 27.0927 9.02786 27.5119 6.92444 28.1882L5 28.8066L6.7775 29.7565C7.45522 30.1187 9.85001 31.3284 12.2162 31.6912C17.4759 32.4975 23.3978 31.8409 27.3844 28.3314C30.7423 25.3754 31.8442 21.1706 31.6153 16.7949C31.5807 16.1324 31.7664 15.5002 32.1381 15.0149C32.8826 14.0433 34.9954 11.2117 35 11.2052ZM30.7325 13.9858C30.1152 14.7914 29.806 15.8203 29.8614 16.8826C30.0923 21.2963 28.8637 24.7192 26.2093 27.0558C23.1087 29.7854 18.1074 30.8568 12.4883 29.9952C11.4707 29.8393 10.419 29.4901 9.54857 29.1413C11.3121 28.5482 12.674 28.0195 14.8733 27.0021L17.9435 25.5817L14.5538 25.3696C12.9301 25.268 11.5781 24.4989 10.747 23.2501C11.1883 23.225 11.6138 23.1552 12.0374 23.0398L15.2704 22.1597L12.0104 21.3793C10.4263 21.0001 9.52339 20.0737 9.0448 19.3632C8.73055 18.8963 8.52524 18.4179 8.4021 17.977C8.72894 18.0627 9.11003 18.1237 9.72458 18.1833L12.7419 18.475L10.3513 16.6521C8.62869 15.3389 7.93839 13.3659 8.44444 11.4692C13.8204 16.9195 20.1325 16.5098 20.7679 16.6539C20.6281 15.3261 20.6244 15.323 20.5878 15.1966C19.7741 12.3851 21.5573 10.9576 22.3616 10.4743C24.0416 9.46512 26.7083 9.31299 28.5554 10.9757C28.9543 11.3345 29.4938 11.4757 29.9987 11.3531C30.4519 11.243 30.8238 11.1265 31.188 10.9996L30.4299 13.1156L31.3976 13.1162C31.215 13.3556 30.9959 13.6422 30.7325 13.9858Z" fill="#191735"/>
</svg>
