<svg width="389" height="394" viewBox="0 0 389 394" fill="none" xmlns="http://www.w3.org/2000/svg">
<path d="M142.665 247.479L77.3178 349.598L-122.99 506.74H-123L-77.0213 388.251L-64.235 377.817L-65.402 358.308L-54.8041 330.998L-43.0659 323.353L-43.3005 301.355L-32.6531 273.916L-16.7132 264.323L-21.3425 244.769L-10.5071 216.846L5.62088 209.384L0.647072 188.102L19.3248 139.967L43.4762 158.645C78.7332 185.903 111.852 215.578 142.665 247.479Z" fill="#FFDD55"/>
<path d="M376.825 262.509C371.786 264.775 369.193 263.965 362.925 262.005C355.113 259.563 343.308 255.872 327.989 262.759C312.669 269.646 307.595 280.925 304.236 288.389C301.541 294.376 300.426 296.855 295.387 299.121C290.348 301.386 287.753 300.575 281.49 298.616C273.676 296.173 261.871 292.483 246.555 299.369L258.731 326.452C263.77 324.187 266.364 324.998 272.627 326.957C277.097 328.355 282.873 330.161 289.867 330.161C295.097 330.161 301.009 329.15 307.562 326.205C322.883 319.318 327.956 308.039 331.316 300.575C334.01 294.587 335.126 292.109 340.165 289.843C345.205 287.576 347.8 288.388 354.065 290.347C361.877 292.789 373.682 296.479 389.001 289.593L376.825 262.509Z" fill="#00CB76"/>
<path d="M128.78 0C125.884 5.9933 122.782 7.41863 116.602 10.2574C108.593 13.9365 97.6237 18.9756 90.0834 34.577C82.544 50.1784 85.4105 61.9037 87.5049 70.4656C89.1203 77.0716 89.9309 80.3874 87.0338 86.3817C84.1386 92.373 81.0365 93.7974 74.8581 96.6352C66.8486 100.313 55.8795 105.351 48.3391 120.952L75.0759 133.874C77.9711 127.882 81.0731 126.458 87.2515 123.62C95.2611 119.942 106.231 114.904 113.771 99.3027C121.31 83.7013 118.443 71.976 116.349 63.4142C114.734 56.8082 113.923 53.4923 116.82 47.499C119.716 41.5057 122.818 40.0804 128.998 37.2416C137.007 33.5625 147.976 28.5234 155.517 12.922L128.78 0Z" fill="#8BBBFF"/>
<path d="M156.502 70.9763H186.197V100.671H156.502V70.9763Z" fill="#1F7099"/>
<path d="M230.738 1.68958H260.433V31.3839H230.738V1.68958Z" fill="#1F7099"/>
<path d="M275.28 194.703H304.974V224.064H275.28V194.703Z" fill="#284866"/>
<path d="M349.516 150.161H379.21V179.523H349.516V150.161Z" fill="#284866"/>
<path d="M-6.81616 75.9253H22.8781V104.855H-6.81616V75.9253Z" fill="#1F7099"/>
<path d="M22.8782 1.68958H52.5725V30.6197H22.8782V1.68958Z" fill="#1F7099"/>
<path d="M290.127 373.634H319.821V402.564H290.127V373.634Z" fill="#284866"/>
<path d="M349.516 328.327H379.21V357.257H349.516V328.327Z" fill="#284866"/>
<path d="M107.22 282.073L85.9687 302.81C56.2843 271.71 24.066 243.005 -10.5081 216.845L0.647099 188.1C38.9923 216.508 74.576 247.895 107.22 282.073Z" fill="#FFF69E"/>
<path d="M64.0939 324.16L42.8427 344.896C19.1565 319.785 -6.05395 296.089 -32.6501 273.917L-21.3465 244.767C8.88228 269.394 37.4086 295.911 64.0939 324.16Z" fill="#FFF69E"/>
<path d="M21.9281 365.306L0.686741 386.043C-17.1001 366.989 -35.6096 348.608 -54.802 330.999L-43.3004 301.355C-20.6437 321.685 1.13215 343.045 21.9281 365.306Z" fill="#FFF69E"/>
<path d="M142.665 247.479C177.556 283.607 209.467 322.586 238.142 364.128L249.307 380.302L199.221 397.312L174.966 391.977L170.113 407.197L140.794 417.154L119.222 413.574L111.366 427.149L82.9281 436.806L64.093 434.731L53.1269 446.927L27.0157 455.795L0.686768 452.171L-3.26257 466.078L-122.99 506.74" fill="#FFB555"/>
<path d="M199.223 397.317L170.113 407.195C144.902 369.948 116.791 335.097 85.9688 302.81L107.22 282.073C141.141 317.568 171.874 356.052 199.223 397.317Z" fill="#FFDD55"/>
<path d="M140.794 417.152L111.367 427.15C90.2151 398.306 67.3307 370.839 42.8428 344.896L64.094 324.16C91.68 353.359 117.306 384.419 140.794 417.152Z" fill="#FFDD55"/>
<path d="M82.9301 436.81L53.1269 446.926C36.4684 425.952 18.9686 405.631 0.686768 386.043L21.9281 365.306C43.3377 388.21 63.6981 412.085 82.9301 436.81Z" fill="#FFDD55"/>
<path d="M379.843 23.3566C375.656 27.4346 375.409 30.4139 374.864 36.9368C374.132 45.6174 373.132 57.505 360.987 69.3233C348.842 81.1318 336.935 81.8048 328.235 82.2898C321.692 82.6561 318.713 82.8244 314.516 86.9024C310.329 90.9705 310.081 93.9498 309.537 100.483C308.805 109.163 307.805 121.051 295.66 132.859C283.515 144.668 271.607 145.341 262.907 145.826C256.374 146.192 253.385 146.36 249.198 150.438C245.011 154.506 244.764 157.486 244.21 164.018C243.487 172.699 242.487 184.587 230.342 196.395C218.197 208.204 206.29 208.877 197.589 209.362C191.057 209.728 188.068 209.896 183.881 213.974L180.525 210.53L284.335 104.856L376.181 19.5854L379.843 23.3566Z" fill="#DF6666"/>
<path d="M376.181 19.5854L180.525 210.53L163.174 192.683C175.319 180.875 187.226 180.202 195.927 179.717C202.469 179.351 205.449 179.182 209.636 175.104C213.822 171.036 214.08 168.057 214.624 161.534C215.357 152.853 216.356 140.966 228.491 129.147C240.636 117.339 252.554 116.666 261.244 116.181C267.787 115.815 270.776 115.646 274.953 111.568C279.15 107.5 279.397 104.521 279.942 97.9981C280.674 89.3175 281.674 77.4299 293.819 65.6115C305.964 53.8031 317.871 53.13 326.572 52.645C333.104 52.2788 336.094 52.1105 340.281 48.0325C344.467 43.9644 344.725 40.9851 345.269 34.4523C346.002 25.7717 347.001 13.8841 359.146 2.07562L376.181 19.5854Z" fill="#E69768"/>
</svg>
