<svg width="40" height="40" viewBox="0 0 40 40" fill="none" xmlns="http://www.w3.org/2000/svg">
<path d="M39.8983 11.7601C39.8046 9.63478 39.4608 8.17362 38.9684 6.9075C38.4604 5.56354 37.6788 4.3603 36.6549 3.36004C35.6544 2.34422 34.443 1.55487 33.1144 1.0549C31.8407 0.562551 30.3869 0.218854 28.2611 0.125147C26.1195 0.0235032 25.4396 0 20.0078 0C14.576 0 13.8961 0.0235032 11.7624 0.117211C9.63662 0.210918 8.17518 0.55492 6.90912 1.04696C5.5646 1.55487 4.36113 2.33628 3.36068 3.36004C2.34466 4.3603 1.55548 5.57148 1.0551 6.89987C0.562658 8.17362 0.218896 9.62685 0.125171 11.7522C0.0235077 13.8934 0 14.5732 0 20.004C0 25.4347 0.0235077 26.1145 0.117233 28.2478C0.210959 30.3732 0.555026 31.8343 1.04747 33.1004C1.55548 34.4444 2.34466 35.6476 3.36068 36.6479C4.36113 37.6637 5.57254 38.4531 6.90118 38.953C8.17518 39.4454 9.62868 39.7891 11.7548 39.8828C13.8882 39.9768 14.5684 40 20.0002 40C25.432 40 26.1118 39.9768 28.2455 39.8828C30.3713 39.7891 31.8328 39.4454 33.0988 38.953C35.7875 37.9137 37.9133 35.7883 38.9528 33.1004C39.445 31.8267 39.789 30.3732 39.8828 28.2478C39.9765 26.1145 40 25.4347 40 20.004C40 14.5732 39.9921 13.8934 39.8983 11.7601ZM36.2956 28.0915C36.2095 30.045 35.8813 31.0999 35.6077 31.8032C34.9355 33.5458 33.5522 34.9288 31.8093 35.6009C31.1059 35.8744 30.0431 36.2026 28.0969 36.2883C25.9867 36.3823 25.3538 36.4055 20.0157 36.4055C14.6776 36.4055 14.0368 36.3823 11.9343 36.2883C9.98039 36.2026 8.92529 35.8744 8.22189 35.6009C7.35455 35.2804 6.56505 34.7725 5.92424 34.1083C5.25992 33.4597 4.75191 32.6783 4.43135 31.8111C4.15781 31.1079 3.82962 30.045 3.74383 28.0994C3.6498 25.9897 3.62659 25.3566 3.62659 20.0195C3.62659 14.6825 3.6498 14.0418 3.74383 11.9399C3.82962 9.98642 4.15781 8.93152 4.43135 8.22826C4.75191 7.36077 5.25992 6.57174 5.93218 5.93074C6.58063 5.26655 7.36218 4.75863 8.22983 4.43844C8.93322 4.16495 9.99626 3.83682 11.9422 3.75074C14.0524 3.65704 14.6856 3.63353 20.0234 3.63353C25.3694 3.63353 26.0022 3.65704 28.1048 3.75074C30.0587 3.83682 31.1138 4.16495 31.8172 4.43844C32.6845 4.75863 33.474 5.26655 34.1148 5.93074C34.7792 6.57937 35.2872 7.36077 35.6077 8.22826C35.8813 8.93152 36.2095 9.99405 36.2956 11.9399C36.3893 14.0497 36.4128 14.6825 36.4128 20.0195C36.4128 25.3566 36.3893 25.9817 36.2956 28.0915Z" fill="white"/>
<path d="M20.0077 9.72848C14.3338 9.72848 9.73022 14.3308 9.73022 20.004C9.73022 25.6771 14.3338 30.2794 20.0077 30.2794C25.6819 30.2794 30.2851 25.6771 30.2851 20.004C30.2851 14.3308 25.6819 9.72848 20.0077 9.72848ZM20.0077 26.6694C16.3267 26.6694 13.3409 23.6845 13.3409 20.004C13.3409 16.3234 16.3267 13.3385 20.0077 13.3385C23.6889 13.3385 26.6744 16.3234 26.6744 20.004C26.6744 23.6845 23.6889 26.6694 20.0077 26.6694Z" fill="white"/>
<path d="M33.0914 9.32222C33.0914 10.6469 32.0171 11.7211 30.6918 11.7211C29.3668 11.7211 28.2925 10.6469 28.2925 9.32222C28.2925 7.99718 29.3668 6.92336 30.6918 6.92336C32.0171 6.92336 33.0914 7.99718 33.0914 9.32222Z" fill="white"/>
</svg>
