<svg width="100" height="100" viewBox="0 0 100 100" fill="none" xmlns="http://www.w3.org/2000/svg">
<path d="M0 20C0 8.9543 8.95431 0 20 0H80C91.0457 0 100 8.95431 100 20V80C100 91.0457 91.0457 100 80 100H20C8.9543 100 0 91.0457 0 80V20Z" fill="black"/>
<path d="M14.9752 44.2499C13.7418 44.2499 12.6668 44.0416 11.7502 43.6249C10.8335 43.1916 9.92515 42.5249 9.02515 41.6249C8.92515 41.5249 8.87515 41.3999 8.87515 41.2499C8.87515 41.1166 8.93349 40.9916 9.05015 40.8749C9.16682 40.7416 9.29182 40.6749 9.42515 40.6749C9.57515 40.6749 9.71682 40.7499 9.85015 40.8999C10.5002 41.6666 11.2668 42.2499 12.1502 42.6499C13.0502 43.0499 13.9918 43.2499 14.9752 43.2499C16.2585 43.2499 17.3168 42.9416 18.1502 42.3249C18.9835 41.7083 19.4002 40.8916 19.4002 39.8749C19.3835 39.0749 19.1668 38.4166 18.7502 37.8999C18.3335 37.3833 17.8168 36.9749 17.2002 36.6749C16.6002 36.3583 15.7752 36.0083 14.7252 35.6249C13.5752 35.1916 12.6752 34.8083 12.0252 34.4749C11.3918 34.1416 10.8418 33.6666 10.3752 33.0499C9.92515 32.4333 9.70015 31.6249 9.70015 30.6249C9.70015 29.8083 9.92515 29.0666 10.3752 28.3999C10.8252 27.7333 11.4668 27.2083 12.3002 26.8249C13.1335 26.4416 14.1002 26.2499 15.2002 26.2499C16.1835 26.2499 17.1168 26.4333 18.0002 26.7999C18.8835 27.1499 19.5835 27.6499 20.1002 28.2999C20.2668 28.5333 20.3502 28.7083 20.3502 28.8249C20.3502 28.9583 20.2835 29.0833 20.1502 29.1999C20.0335 29.2999 19.9002 29.3499 19.7502 29.3499C19.6168 29.3499 19.5085 29.2999 19.4252 29.1999C18.9585 28.5999 18.3585 28.1249 17.6252 27.7749C16.8918 27.4249 16.0835 27.2499 15.2002 27.2499C13.9335 27.2499 12.8752 27.5499 12.0252 28.1499C11.1918 28.7499 10.7752 29.5666 10.7752 30.5999C10.7752 31.3166 10.9752 31.9249 11.3752 32.4249C11.7918 32.9249 12.3085 33.3333 12.9252 33.6499C13.5418 33.9499 14.3085 34.2666 15.2252 34.5999C16.3918 35.0166 17.3168 35.3999 18.0002 35.7499C18.6835 36.0999 19.2668 36.6083 19.7502 37.2749C20.2335 37.9416 20.4752 38.8249 20.4752 39.9249C20.4752 40.6916 20.2502 41.4083 19.8002 42.0749C19.3502 42.7416 18.7002 43.2749 17.8502 43.6749C17.0168 44.0583 16.0585 44.2499 14.9752 44.2499Z" fill="#FF7948"/>
<path d="M28.9703 31.4249C29.0869 31.4249 29.1953 31.4749 29.2953 31.5749C29.3953 31.6749 29.4453 31.7833 29.4453 31.8999C29.4453 32.0333 29.3953 32.1499 29.2953 32.2499C29.2119 32.3333 29.1036 32.3749 28.9703 32.3749H26.2203V41.2749C26.2203 42.0083 26.3453 42.4999 26.5953 42.7499C26.8619 42.9833 27.1953 43.0999 27.5953 43.0999C27.6619 43.0999 27.7536 43.0833 27.8703 43.0499C28.0036 43.0166 28.1119 42.9999 28.1953 42.9999C28.3119 42.9999 28.4119 43.0499 28.4953 43.1499C28.5786 43.2333 28.6203 43.3333 28.6203 43.4499C28.6203 43.5999 28.5203 43.7333 28.3203 43.8499C28.1203 43.9499 27.8869 43.9999 27.6203 43.9999C27.2036 43.9999 26.8536 43.9749 26.5703 43.9249C26.2869 43.8583 25.9869 43.6333 25.6703 43.2499C25.3703 42.8499 25.2203 42.2083 25.2203 41.3249V32.3749H23.1703C23.0536 32.3749 22.9453 32.3249 22.8453 32.2249C22.7453 32.1249 22.6953 32.0166 22.6953 31.8999C22.6953 31.7666 22.7369 31.6583 22.8203 31.5749C22.9203 31.4749 23.0369 31.4249 23.1703 31.4249H25.2203V28.2499C25.2203 28.1166 25.2703 27.9999 25.3703 27.8999C25.4703 27.7999 25.5869 27.7499 25.7203 27.7499C25.8703 27.7499 25.9869 27.7999 26.0703 27.8999C26.1703 27.9999 26.2203 28.1166 26.2203 28.2499V31.4249H28.9703Z" fill="#FF7948"/>
<path d="M38.3804 31.1249C39.1471 31.1249 39.5304 31.3166 39.5304 31.6999C39.5304 31.8499 39.4888 31.9749 39.4054 32.0749C39.3221 32.1749 39.2138 32.2249 39.0804 32.2249C39.0304 32.2249 38.9054 32.1916 38.7054 32.1249C38.5221 32.0416 38.3221 31.9999 38.1054 31.9999C37.4221 31.9999 36.7388 32.2749 36.0554 32.8249C35.3721 33.3583 34.8138 34.0416 34.3804 34.8749C33.9471 35.6916 33.7304 36.4833 33.7304 37.2499V43.4999C33.7304 43.6333 33.6804 43.7499 33.5804 43.8499C33.4804 43.9499 33.3638 43.9999 33.2304 43.9999C33.0804 43.9999 32.9554 43.9499 32.8554 43.8499C32.7721 43.7499 32.7304 43.6333 32.7304 43.4999V32.0249C32.7304 31.8916 32.7804 31.7749 32.8804 31.6749C32.9804 31.5749 33.0971 31.5249 33.2304 31.5249C33.3804 31.5249 33.4971 31.5749 33.5804 31.6749C33.6804 31.7749 33.7304 31.8916 33.7304 32.0249V34.6749C34.1138 33.6583 34.7054 32.8166 35.5054 32.1499C36.3221 31.4833 37.2804 31.1416 38.3804 31.1249Z" fill="#FF7948"/>
<path d="M51.748 40.9999C51.8647 40.9999 51.9647 41.0499 52.048 41.1499C52.1313 41.2333 52.173 41.3333 52.173 41.4499C52.173 41.5666 52.1397 41.6666 52.073 41.7499C51.523 42.4833 50.8397 43.0833 50.023 43.5499C49.2063 44.0166 48.3313 44.2499 47.398 44.2499C46.148 44.2499 45.0397 43.9833 44.073 43.4499C43.1063 42.9166 42.348 42.1583 41.798 41.1749C41.2647 40.1916 40.998 39.0499 40.998 37.7499C40.998 36.4166 41.2563 35.2499 41.773 34.2499C42.3063 33.2333 43.0063 32.4583 43.873 31.9249C44.7397 31.3916 45.6647 31.1249 46.648 31.1249C47.6313 31.1249 48.5397 31.3416 49.373 31.7749C50.223 32.1916 50.9147 32.8249 51.448 33.6749C51.9813 34.5249 52.2647 35.5749 52.298 36.8249C52.298 36.9583 52.248 37.0833 52.148 37.1999C52.048 37.2999 51.9313 37.3499 51.798 37.3499H41.973V37.6749C41.973 38.7083 42.1813 39.6583 42.598 40.5249C43.0147 41.3749 43.6313 42.0499 44.448 42.5499C45.2647 43.0499 46.248 43.2999 47.398 43.2999C48.198 43.2999 48.948 43.1083 49.648 42.7249C50.3647 42.3249 50.923 41.8249 51.323 41.2249C51.4397 41.0749 51.5813 40.9999 51.748 40.9999ZM46.648 32.1249C46.0313 32.1249 45.398 32.2916 44.748 32.6249C44.1147 32.9416 43.548 33.4249 43.048 34.0749C42.5647 34.7083 42.2397 35.4833 42.073 36.3999H51.273V36.1749C51.1897 35.3249 50.9147 34.5999 50.448 33.9999C49.998 33.3833 49.4313 32.9166 48.748 32.5999C48.0813 32.2833 47.3813 32.1249 46.648 32.1249Z" fill="#FF7948"/>
<path d="M66.3919 31.5249C66.542 31.5249 66.6586 31.5749 66.742 31.6749C66.8419 31.7749 66.8919 31.8916 66.8919 32.0249V43.4999C66.8919 43.6333 66.8419 43.7499 66.742 43.8499C66.6419 43.9499 66.5253 43.9999 66.3919 43.9999C66.2419 43.9999 66.1169 43.9499 66.0169 43.8499C65.9336 43.7499 65.8919 43.6333 65.8919 43.4999V41.2499C65.4753 42.0999 64.8336 42.8166 63.9669 43.3999C63.1003 43.9666 62.1419 44.2499 61.0919 44.2499C59.992 44.2499 59.0003 43.9666 58.117 43.3999C57.2336 42.8166 56.542 42.0249 56.042 41.0249C55.542 40.0083 55.292 38.8749 55.292 37.6249C55.292 36.3916 55.542 35.2833 56.042 34.2999C56.5586 33.2999 57.2586 32.5249 58.1419 31.9749C59.0253 31.4083 60.0086 31.1249 61.0919 31.1249C62.1753 31.1249 63.1503 31.4083 64.0169 31.9749C64.8836 32.5416 65.5086 33.2999 65.8919 34.2499V32.0249C65.8919 31.8916 65.9336 31.7749 66.0169 31.6749C66.1169 31.5749 66.2419 31.5249 66.3919 31.5249ZM61.1419 43.2999C62.0586 43.2999 62.8836 43.0583 63.617 42.5749C64.367 42.0749 64.9503 41.3916 65.367 40.5249C65.7836 39.6583 65.992 38.6916 65.992 37.6249C65.992 36.6083 65.7836 35.6749 65.367 34.8249C64.9503 33.9749 64.367 33.3083 63.617 32.8249C62.8836 32.3249 62.0586 32.0749 61.1419 32.0749C60.2253 32.0749 59.3919 32.3166 58.6419 32.7999C57.9086 33.2666 57.3336 33.9249 56.917 34.7749C56.5003 35.6083 56.292 36.5583 56.292 37.6249C56.292 38.6916 56.5003 39.6583 56.917 40.5249C57.3336 41.3916 57.9086 42.0749 58.6419 42.5749C59.3753 43.0583 60.2086 43.2999 61.1419 43.2999Z" fill="#FF7948"/>
<path d="M85.7351 31.3749C87.1684 31.3749 88.2518 31.8249 88.9851 32.7249C89.7351 33.6249 90.1101 34.7916 90.1101 36.2249V43.4999C90.1101 43.6333 90.0601 43.7499 89.9601 43.8499C89.8768 43.9499 89.7601 43.9999 89.6101 43.9999C89.4601 43.9999 89.3351 43.9499 89.2351 43.8499C89.1518 43.7499 89.1101 43.6333 89.1101 43.4999V36.3249C89.1101 35.1416 88.8185 34.1833 88.2351 33.4499C87.6684 32.6999 86.8018 32.3249 85.6351 32.3249C84.9184 32.3249 84.2101 32.5083 83.5101 32.8749C82.8268 33.2416 82.2684 33.7333 81.8351 34.3499C81.4018 34.9499 81.1851 35.6083 81.1851 36.3249V43.4999C81.1851 43.6333 81.1351 43.7499 81.0351 43.8499C80.9518 43.9499 80.8351 43.9999 80.6851 43.9999C80.5351 43.9999 80.4101 43.9499 80.3101 43.8499C80.2268 43.7499 80.1851 43.6333 80.1851 43.4999V36.1999C80.1851 35.0499 79.9101 34.1166 79.3601 33.3999C78.8101 32.6833 77.9768 32.3249 76.8601 32.3249C76.1601 32.3249 75.4768 32.4999 74.8101 32.8499C74.1434 33.1999 73.5934 33.6749 73.1601 34.2749C72.7434 34.8749 72.5351 35.5166 72.5351 36.1999V43.4999C72.5351 43.6333 72.4851 43.7499 72.3851 43.8499C72.2851 43.9499 72.1684 43.9999 72.0351 43.9999C71.8851 43.9999 71.7601 43.9499 71.6601 43.8499C71.5768 43.7499 71.5351 43.6333 71.5351 43.4999V32.0249C71.5351 31.8916 71.5851 31.7749 71.6851 31.6749C71.7851 31.5749 71.9018 31.5249 72.0351 31.5249C72.1851 31.5249 72.3018 31.5749 72.3851 31.6749C72.4851 31.7749 72.5351 31.8916 72.5351 32.0249V33.7749C73.0184 33.0749 73.6434 32.4999 74.4101 32.0499C75.1934 31.5999 76.0101 31.3749 76.8601 31.3749C77.7768 31.3749 78.5934 31.6083 79.3101 32.0749C80.0268 32.5416 80.5518 33.2249 80.8851 34.1249C81.2351 33.3583 81.8934 32.7083 82.8601 32.1749C83.8434 31.6416 84.8018 31.3749 85.7351 31.3749Z" fill="#FF7948"/>
<path d="M28.485 74.9749C29.0917 74.9749 29.5933 75.1849 29.99 75.6049C30.41 76.0015 30.62 76.4682 30.62 77.0049C30.62 77.5882 30.41 78.0665 29.99 78.4399C29.5933 78.8132 29.0917 78.9999 28.485 78.9999H16.76C16.1533 78.9999 15.64 78.8015 15.22 78.4049C14.8233 77.9849 14.625 77.4715 14.625 76.8649V56.6349C14.625 56.0282 14.8233 55.5265 15.22 55.1299C15.64 54.7099 16.1533 54.4999 16.76 54.4999H28.485C29.0917 54.4999 29.5933 54.6982 29.99 55.0949C30.41 55.4682 30.62 55.9582 30.62 56.5649C30.62 57.1482 30.4217 57.6265 30.025 57.9999C29.6283 58.3499 29.115 58.5249 28.485 58.5249H19V64.4749H26.91C27.5167 64.4749 28.0183 64.6732 28.415 65.0699C28.835 65.4432 29.045 65.9332 29.045 66.5399C29.045 67.1232 28.8467 67.6015 28.45 67.9749C28.0533 68.3249 27.54 68.4999 26.91 68.4999H19V74.9749H28.485Z" fill="white"/>
<path d="M50.1593 59.9249C50.766 59.9249 51.2676 60.1232 51.6643 60.5199C52.061 60.9165 52.2593 61.4299 52.2593 62.0599V76.8649C52.2593 77.4715 52.061 77.9849 51.6643 78.4049C51.2676 78.8015 50.766 78.9999 50.1593 78.9999C49.5526 78.9999 49.051 78.8015 48.6543 78.4049C48.281 78.0082 48.0826 77.5065 48.0593 76.8999C47.476 77.5765 46.6826 78.1599 45.6793 78.6499C44.6993 79.1165 43.661 79.3499 42.5643 79.3499C40.9543 79.3499 39.496 78.9415 38.1893 78.1249C36.8826 77.2849 35.8443 76.1299 35.0743 74.6599C34.3276 73.1899 33.9543 71.5215 33.9543 69.6549C33.9543 67.7882 34.3276 66.1199 35.0743 64.6499C35.821 63.1565 36.836 62.0015 38.1193 61.1849C39.426 60.3449 40.861 59.9249 42.4243 59.9249C43.5443 59.9249 44.5943 60.1349 45.5743 60.5549C46.5543 60.9515 47.3826 61.4649 48.0593 62.0949V62.0599C48.0593 61.4532 48.2576 60.9515 48.6543 60.5549C49.051 60.1349 49.5526 59.9249 50.1593 59.9249ZM43.0893 75.4999C44.606 75.4999 45.8426 74.9515 46.7993 73.8549C47.756 72.7349 48.2343 71.3349 48.2343 69.6549C48.2343 67.9749 47.756 66.5749 46.7993 65.4549C45.8426 64.3349 44.606 63.7749 43.0893 63.7749C41.596 63.7749 40.371 64.3349 39.4143 65.4549C38.4576 66.5749 37.9793 67.9749 37.9793 69.6549C37.9793 71.3349 38.446 72.7349 39.3793 73.8549C40.336 74.9515 41.5726 75.4999 43.0893 75.4999Z" fill="white"/>
<path d="M66.5409 75.0449C66.8676 75.0449 67.1593 75.2082 67.4159 75.5349C67.6959 75.8382 67.8359 76.2465 67.8359 76.7599C67.8359 77.3899 67.4859 77.9265 66.7859 78.3699C66.1093 78.7899 65.3393 78.9999 64.4759 78.9999C63.0293 78.9999 61.8043 78.6965 60.8009 78.0899C59.8209 77.4599 59.3309 76.1415 59.3309 74.1349V64.4749H57.7209C57.1609 64.4749 56.6943 64.2882 56.3209 63.9149C55.9476 63.5415 55.7609 63.0749 55.7609 62.5149C55.7609 61.9782 55.9476 61.5349 56.3209 61.1849C56.6943 60.8115 57.1609 60.6249 57.7209 60.6249H59.3309V58.3849C59.3309 57.7782 59.5293 57.2765 59.9259 56.8799C60.3459 56.4599 60.8593 56.2499 61.4659 56.2499C62.0493 56.2499 62.5393 56.4599 62.9359 56.8799C63.3326 57.2765 63.5309 57.7782 63.5309 58.3849V60.6249H66.0159C66.5759 60.6249 67.0426 60.8115 67.4159 61.1849C67.7893 61.5582 67.9759 62.0249 67.9759 62.5849C67.9759 63.1215 67.7893 63.5765 67.4159 63.9499C67.0426 64.2999 66.5759 64.4749 66.0159 64.4749H63.5309V73.9599C63.5309 74.4499 63.6593 74.8115 63.9159 75.0449C64.1726 75.2549 64.5226 75.3599 64.9659 75.3599C65.1526 75.3599 65.4093 75.3132 65.7359 75.2199C66.0159 75.1032 66.2843 75.0449 66.5409 75.0449Z" fill="white"/>
<path d="M72.1308 76.0949C71.9208 75.8149 71.8158 75.4649 71.8158 75.0449C71.8158 74.4382 72.1192 73.9249 72.7258 73.5049C73.0525 73.2949 73.3908 73.1899 73.7408 73.1899C74.2308 73.1899 74.6975 73.4115 75.1408 73.8549C75.8408 74.5782 76.5642 75.1149 77.3108 75.4649C78.0808 75.8149 79.0025 75.9899 80.0758 75.9899C81.8958 75.9199 82.8058 75.2315 82.8058 73.9249C82.8058 73.2482 82.4908 72.7349 81.8608 72.3849C81.2542 72.0349 80.2975 71.6849 78.9908 71.3349C77.6375 70.9615 76.5292 70.5882 75.6658 70.2149C74.8258 69.8415 74.0908 69.2815 73.4608 68.5349C72.8542 67.7649 72.5508 66.7382 72.5508 65.4549C72.5508 64.3349 72.8658 63.3665 73.4958 62.5499C74.1492 61.7099 74.9892 61.0682 76.0158 60.6249C77.0658 60.1582 78.1742 59.9249 79.3408 59.9249C80.5308 59.9249 81.7208 60.1465 82.9108 60.5899C84.1008 61.0332 85.0342 61.6865 85.7108 62.5499C86.0142 62.9232 86.1658 63.3432 86.1658 63.8099C86.1658 64.3465 85.9442 64.7899 85.5008 65.1399C85.1741 65.3965 84.8008 65.5249 84.3808 65.5249C83.8675 65.5249 83.4475 65.3615 83.1208 65.0349C82.7008 64.5215 82.1525 64.1132 81.4758 63.8099C80.8225 63.5065 80.0758 63.3549 79.2358 63.3549C77.4625 63.3549 76.5758 63.9965 76.5758 65.2799C76.5758 65.7932 76.7392 66.2132 77.0658 66.5399C77.3925 66.8432 77.8008 67.0882 78.2908 67.2749C78.8042 67.4382 79.5158 67.6482 80.4258 67.9049C81.6858 68.2549 82.7358 68.6165 83.5758 68.9899C84.4158 69.3632 85.1275 69.9349 85.7108 70.7049C86.2942 71.4749 86.5858 72.4899 86.5858 73.7499C86.5858 74.8932 86.2475 75.8965 85.5708 76.7599C84.8941 77.5999 84.0191 78.2415 82.9458 78.6849C81.8958 79.1282 80.8108 79.3499 79.6908 79.3499C78.1508 79.3499 76.7158 79.0932 75.3858 78.5799C74.0558 78.0665 72.9708 77.2382 72.1308 76.0949Z" fill="white"/>
</svg>
