<svg width="40" height="40" viewBox="0 0 40 40" fill="none" xmlns="http://www.w3.org/2000/svg">
<g id="twitter-fill">
<path id="Path 219" d="M37.9982 6.91771C36.6499 7.5901 35.2201 8.03169 33.7561 8.22786C35.2992 7.18737 36.4542 5.54984 37.0057 3.62041C35.5575 4.59208 33.9698 5.27304 32.315 5.6414C30.0294 2.88434 26.3849 2.20491 23.4338 3.98569C20.4826 5.76648 18.9627 9.56221 19.7298 13.2355C13.7905 12.8999 8.25681 9.73712 4.50609 4.53434C3.84961 5.80557 3.50463 7.25067 3.50648 8.72166C3.50648 11.6088 4.80985 14.1594 6.79141 15.6527C5.61874 15.6111 4.47188 15.2541 3.44643 14.6114L3.44643 14.7149C3.44643 18.6776 5.92381 22.0931 9.37016 22.8802C8.28207 23.2126 7.14117 23.2618 6.03375 23.0239C7.00003 26.4171 9.77337 28.7419 12.9339 28.8081C9.83958 31.5479 5.90614 32.7885 2 32.2567C5.37623 34.7046 9.30649 36.0042 13.3206 36C26.9072 36 34.3371 23.3106 34.3371 12.3057C34.3371 11.9473 34.3283 11.5849 34.3142 11.2305C35.7604 10.0521 37.0085 8.59228 38 6.9197L37.9982 6.91771Z" fill="white"/>
</g>
</svg>
